<?xml version="1.0" encoding="UTF-8" standalone="no"?>
<!-- Created with Inkscape (http://www.inkscape.org/) -->

<svg
   xmlns:dc="http://purl.org/dc/elements/1.1/"
   xmlns:cc="http://creativecommons.org/ns#"
   xmlns:rdf="http://www.w3.org/1999/02/22-rdf-syntax-ns#"
   xmlns:svg="http://www.w3.org/2000/svg"
   xmlns="http://www.w3.org/2000/svg"
   xmlns:sodipodi="http://sodipodi.sourceforge.net/DTD/sodipodi-0.dtd"
   xmlns:inkscape="http://www.inkscape.org/namespaces/inkscape"
   width="1280"
   height="3200"
   viewBox="0 0 1280 3200"
   id="svg2"
   version="1.1"
   inkscape:version="0.91 r13725"
   sodipodi:docname="unit2wireframe1.svg">
  <defs
     id="defs4" />
  <sodipodi:namedview
     id="base"
     pagecolor="#ffffff"
     bordercolor="#666666"
     borderopacity="1.0"
     inkscape:pageopacity="0.0"
     inkscape:pageshadow="2"
     inkscape:zoom="0.175"
     inkscape:cx="2385.4514"
     inkscape:cy="2098.0209"
     inkscape:document-units="px"
     inkscape:current-layer="layer1"
     showgrid="false"
     units="px"
     showguides="false"
     inkscape:guide-bbox="true"
     inkscape:snap-grids="false"
     inkscape:snap-to-guides="false"
     inkscape:window-width="1280"
     inkscape:window-height="704"
     inkscape:window-x="0"
     inkscape:window-y="0"
     inkscape:window-maximized="1"
     inkscape:snap-page="false">
    <inkscape:grid
       type="xygrid"
       id="grid3336" />
    <sodipodi:guide
       position="660,939.99999"
       orientation="1,0"
       id="guide3338" />
    <sodipodi:guide
       position="320,779.99999"
       orientation="1,0"
       id="guide3340" />
    <sodipodi:guide
       position="980,939.99999"
       orientation="1,0"
       id="guide3342" />
  </sodipodi:namedview>
  <metadata
     id="metadata7">
    <rdf:RDF>
      <cc:Work
         rdf:about="">
        <dc:format>image/svg+xml</dc:format>
        <dc:type
           rdf:resource="http://purl.org/dc/dcmitype/StillImage" />
        <dc:title></dc:title>
      </cc:Work>
    </rdf:RDF>
  </metadata>
  <g
     inkscape:label="Layer 1"
     inkscape:groupmode="layer"
     id="layer1"
     transform="translate(0,2147.6377)">
    <rect
       style="fill:#000000"
       id="rect3442"
       width="980"
       height="96.162437"
       x="175.61273"
       y="-2071.0442" />
    <rect
       style="fill:#000000"
       id="rect3506"
       width="1260"
       height="60"
       x="23.693977"
       y="-1952.4556" />
    <rect
       style="fill:#000000"
       id="rect3552"
       width="609.51276"
       height="546.46704"
       x="688.52631"
       y="-1258.7196" />
    <rect
       style="fill:#000000"
       id="rect3558"
       width="1246.0609"
       height="411.30963"
       x="29.75489"
       y="-1862.3541" />
    <rect
       style="fill:#000000"
       id="rect3562"
       width="1046.0507"
       height="51.918781"
       x="118.44527"
       y="-1340.3339" />
    <rect
       style="fill:#000000"
       id="rect3564"
       width="1200"
       height="80"
       x="51.775219"
       y="-1432.8618" />
    <rect
       style="fill:#000000"
       id="rect3602"
       width="600"
       height="540"
       x="65.917336"
       y="-680.34399" />
    <rect
       style="fill:#000000"
       id="rect3604"
       width="580"
       height="100"
       x="687.73456"
       y="-629.8363" />
    <rect
       style="fill:#000000"
       id="rect3606"
       width="540"
       height="40"
       x="683.2879"
       y="-509.8363" />
    <rect
       style="fill:#000000"
       id="rect3608"
       width="540"
       height="40"
       x="683.2879"
       y="-443.77554" />
    <rect
       style="fill:#000000"
       id="rect3610"
       width="540"
       height="40"
       x="685.30817"
       y="-381.75516" />
    <rect
       style="fill:#000000"
       id="rect3612"
       width="540"
       height="40"
       x="683.2879"
       y="-321.75519" />
    <rect
       style="fill:#000000"
       id="rect3614"
       width="540"
       height="40"
       x="685.30817"
       y="-259.93802" />
    <rect
       style="fill:#000000"
       id="rect3616"
       width="630.30457"
       height="100"
       x="33.592445"
       y="-1186.1918" />
    <rect
       style="fill:#000000"
       id="rect3621"
       width="620"
       height="40"
       x="47.937634"
       y="-1043.9684" />
    <rect
       style="fill:#000000"
       id="rect3623"
       width="620"
       height="40"
       x="49.957958"
       y="-972.04962" />
    <rect
       style="fill:#000000"
       id="rect3625"
       width="620"
       height="40"
       x="47.937634"
       y="-914.06982" />
    <rect
       style="fill:#000000"
       id="rect3627"
       width="620"
       height="40"
       x="45.917339"
       y="-860.33386" />
    <rect
       style="fill:#000000"
       id="rect3629"
       width="620"
       height="40"
       x="43.897045"
       y="-804.37451" />
    <rect
       style="fill:#000000"
       id="rect3631"
       width="1168.0812"
       height="176.77159"
       x="47.328503"
       y="652.83405" />
    <rect
       style="fill:#000000"
       id="rect3633"
       width="1160"
       height="100"
       x="45.308178"
       y="529.79834" />
    <rect
       style="fill:#b3b3b3"
       id="rect3635"
       width="660"
       height="520"
       x="331.77524"
       y="-14.069844" />
    <rect
       style="fill:#000000"
       id="rect3637"
       width="900"
       height="80"
       x="195.0036"
       y="-114.8821" />
    <path
       style="fill:#b3b3b3"
       d="m 171.33612,-2025.046 0,-47.4772 488.9138,0 488.91388,0 0,47.4772 0,47.4771 -488.91388,0 -488.9138,0 0,-47.4771 z"
       id="path3642"
       inkscape:connector-curvature="0" />
    <path
       style="fill:#b3b3b3"
       d="m 23.853845,-1922.0105 0,-29.2944 629.325075,0 629.32498,0 0,29.2944 0,29.2945 -629.32498,0 -629.325075,0 0,-29.2945 z"
       id="path3644"
       inkscape:connector-curvature="0" />
    <path
       style="fill:#b3b3b3"
       d="m 29.914765,-1657.3505 0,-205.061 622.253955,0 622.25398,0 0,205.061 0,205.061 -622.25398,0 -622.253955,0 0,-205.061 z"
       id="path3646"
       inkscape:connector-curvature="0" />
    <path
       style="fill:#b3b3b3"
       d="m 52.138115,-1392.6905 0,-39.396 599.020505,0 599.02048,0 0,39.396 0,39.3959 -599.02048,0 -599.020505,0 0,-39.3959 z"
       id="path3648"
       inkscape:connector-curvature="0" />
    <path
       style="fill:#b3b3b3"
       d="m 118.80819,-1313.8986 0,-25.2538 522.24883,0 522.24888,0 0,25.2538 0,25.2538 -522.24888,0 -522.24883,0 0,-25.2538 z"
       id="path3650"
       inkscape:connector-curvature="0" />
    <path
       style="fill:#b3b3b3"
       d="m 688.53422,-1005.8021 0,-252.5381 304.0559,0 304.05598,0 0,252.5381 0,252.5381 -304.05598,0 -304.0559,0 0,-252.5381 z"
       id="path3652"
       inkscape:connector-curvature="0" />
    <path
       style="fill:#b3b3b3"
       d="m 33.955375,-1136.1118 0,-49.4975 314.157445,0 314.1574,0 0,49.4975 0,49.4975 -314.1574,0 -314.157445,0 0,-49.4975 z"
       id="path3654"
       inkscape:connector-curvature="0" />
    <path
       style="fill:#b3b3b3"
       d="m 48.097505,-1023.9849 0,-18.1827 309.106685,0 309.10673,0 0,18.1827 0,18.1828 -309.10673,0 -309.106685,0 0,-18.1828 z"
       id="path3656"
       inkscape:connector-curvature="0" />
    <path
       style="fill:#b3b3b3"
       d="m 50.117815,-952.26411 0,-19.1929 309.106685,0 309.10672,0 0,19.1929 0,19.1929 -309.10672,0 -309.106685,0 0,-19.1929 z"
       id="path3658"
       inkscape:connector-curvature="0" />
    <path
       style="fill:#b3b3b3"
       d="m 48.097505,-893.67521 0,-19.1929 309.106685,0 309.10673,0 0,19.1929 0,19.19291 -309.10673,0 -309.106685,0 0,-19.19291 z"
       id="path3660"
       inkscape:connector-curvature="0" />
    <path
       style="fill:#b3b3b3"
       d="m 46.077205,-841.1473 0,-19.1929 309.106685,0 309.10663,0 0,19.1929 0,19.1929 -309.10663,0 -309.106685,0 0,-19.1929 z"
       id="path3662"
       inkscape:connector-curvature="0" />
    <path
       style="fill:#b3b3b3"
       d="m 44.056895,-784.5787 0,-19.1929 309.106685,0 309.10664,0 0,19.1929 0,19.1929 -309.10664,0 -309.106685,0 0,-19.1929 z"
       id="path3664"
       inkscape:connector-curvature="0" />
    <path
       style="fill:#b3b3b3"
       d="m 688.53422,-733.061 0,-20.203 304.0559,0 304.05598,0 0,20.203 0,20.2031 -304.05598,0 -304.0559,0 0,-20.2031 z"
       id="path3666"
       inkscape:connector-curvature="0" />
    <path
       style="fill:#b3b3b3"
       d="m 688.53422,-579.51781 0,-48.4873 288.9036,0 288.90368,0 0,48.4873 0,48.4874 -288.90368,0 -288.9036,0 0,-48.4874 z"
       id="path3668"
       inkscape:connector-curvature="0" />
    <path
       style="fill:#b3b3b3"
       d="m 66.280255,-409.81211 0,-268.70059 299.005155,0 299.00511,0 0,268.70059 0,268.7005 -299.00511,0 -299.005155,0 0,-268.7005 z"
       id="path3670"
       inkscape:connector-curvature="0" />
    <path
       style="fill:#b3b3b3"
       d="m 684.49362,-489.61421 0,-19.1929 268.7006,0 268.70058,0 0,19.1929 0,19.1929 -268.70058,0 -268.7006,0 0,-19.1929 z"
       id="path3672"
       inkscape:connector-curvature="0" />
    <path
       style="fill:#b3b3b3"
       d="m 684.49362,-422.94411 0,-19.1929 268.7006,0 268.70058,0 0,19.1929 0,19.1929 -268.70058,0 -268.7006,0 0,-19.1929 z"
       id="path3674"
       inkscape:connector-curvature="0" />
    <path
       style="fill:#b3b3b3"
       d="m 686.51392,-362.33501 0,-19.1929 268.7006,0 268.70058,0 0,19.1929 0,19.1929 -268.70058,0 -268.7006,0 0,-19.1929 z"
       id="path3676"
       inkscape:connector-curvature="0" />
    <path
       style="fill:#b3b3b3"
       d="m 684.49362,-301.72581 0,-19.1929 268.7006,0 268.70058,0 0,19.1929 0,19.1929 -268.70058,0 -268.7006,0 0,-19.1929 z"
       id="path3678"
       inkscape:connector-curvature="0" />
    <path
       style="fill:#b3b3b3"
       d="m 195.57978,-75.451614 0,-39.395996 449.51794,0 449.51788,0 0,39.395996 0,39.395897 -449.51788,0 -449.51794,0 0,-39.395897 z"
       id="path3680"
       inkscape:connector-curvature="0" />
    <path
       style="fill:#b3b3b3"
       d="m 46.077205,580.13736 0,-48.4874 578.817415,0 578.81738,0 0,48.4874 0,48.4873 -578.81738,0 -578.817415,0 0,-48.4873 z"
       id="path3682"
       inkscape:connector-curvature="0" />
    <path
       style="fill:#b3b3b3"
       d="m 48.097505,740.75156 0,-87.8833 582.858025,0 582.85807,0 0,87.8833 0,87.88329 -582.85807,0 -582.858025,0 0,-87.88329 z"
       id="path3684"
       inkscape:connector-curvature="0" />
    <path
       style="fill:#b3b3b3"
       d="m 686.51392,-239.09641 0,-19.1929 268.7006,0 268.70058,0 0,19.1929 0,19.1929 -268.70058,0 -268.7006,0 0,-19.1929 z"
       id="path3686"
       inkscape:connector-curvature="0" />
    <path
       style="fill:none;fill-rule:evenodd;stroke:#000000;stroke-width:1px;stroke-linecap:butt;stroke-linejoin:miter;stroke-opacity:1"
       d="m 31.978255,-1462.5673 c 19.12909,0 16.05129,1.4907 38.38579,-8.0812 11.07274,-4.7455 21.03194,-11.9679 32.324885,-16.1625 12.40298,-4.6068 25.65173,-6.5098 38.3858,-10.1015 103.50406,-29.1934 -20.63834,3.9425 78.7919,-22.2233 32.93315,-8.6667 45.1811,-10.583 76.77159,-24.2437 8.18574,-3.5398 68.2354,-34.3922 74.75129,-38.3858 8.61257,-5.2787 15.79413,-12.6468 24.24366,-18.1827 53.8542,-35.2838 15.02649,-4.6774 64.64977,-40.4062 6.99881,-5.0391 13.07149,-11.3129 20.20305,-16.1624 24.69454,-16.7923 30.01273,-17.5461 54.54823,-30.3046 8.82173,-4.5873 17.29999,-9.8394 26.26397,-14.1421 15.01018,-7.2049 32.57338,-13.3394 48.48732,-18.1827 7.34567,-2.2357 15.05681,-3.3046 22.22336,-6.061 14.32605,-5.51 44.47575,-21.5345 58.58885,-28.2842 5.9835,-2.8617 12.1945,-5.2297 18.1827,-8.0813 8.1575,-3.8845 15.9036,-8.6468 24.2437,-12.1218 7.8631,-3.2763 16.1624,-5.3875 24.2437,-8.0812 8.0812,-2.6938 16.053,-5.7411 24.2436,-8.0812 6.4522,-1.8435 32.4859,-6.9013 38.3858,-8.0813 6.7344,-1.3468 13.4567,-2.7555 20.2031,-4.0406 7.3962,-1.4088 15,-1.9161 22.2233,-4.0406 4.334,-1.2747 7.7635,-4.8723 12.1219,-6.0609 3.2485,-0.886 6.7682,0.4762 10.1015,0 1.4907,-0.213 2.564,-1.725 4.0406,-2.0203 1.9811,-0.3962 4.0406,0 6.0609,0 2.6938,0 5.3875,0 8.0812,0 6.061,0 12.1428,-0.5033 18.1828,0 4.7454,0.3954 9.3967,1.6248 14.1421,2.0203 3.3556,0.2796 6.7344,0 10.1015,0 5.3875,0 10.775,0 16.1625,0 5.3875,0 10.7749,0 16.1624,0 2.6938,0 5.404,0.2975 8.0812,0 3.4129,-0.3792 6.7344,-1.3469 10.1016,-2.0203 3.3671,-0.6734 6.77018,-1.1875 10.10148,-2.0203 4.7563,-1.1891 9.3186,-3.1636 14.1422,-4.0406 5.3005,-0.9638 10.9032,1.1687 16.1624,0 3.5402,-0.7867 6.6611,-2.8938 10.1015,-4.0406 5.2683,-1.7561 10.9628,-2.0908 16.1625,-4.0406 4.2299,-1.5863 8.0812,-4.0407 12.1218,-6.061 2.6937,-1.3468 5.5753,-2.37 8.0812,-4.0406 2.8017,-1.8677 5.1577,-4.3903 8.0812,-6.0609 1.849,-1.0566 4.1035,-1.1814 6.0609,-2.0203 8.7305,-3.7416 6.8506,-4.7306 16.1625,-6.0609 4.1248,-0.5893 10.2138,0.7857 14.1421,0 4.1765,-0.8353 7.9314,-3.2787 12.1219,-4.0406 3.3128,-0.6024 6.751,0.335 10.1015,0 3.4168,-0.3417 6.6942,-1.5944 10.1015,-2.0203 2.0047,-0.2506 4.0406,0 6.0609,0 8.0812,0 16.1625,0 24.2437,0 24.9171,0 49.8342,0 74.7513,0"
       id="path3688"
       inkscape:connector-curvature="0" />
    <path
       style="fill:none;fill-rule:evenodd;stroke:#000000;stroke-width:1px;stroke-linecap:butt;stroke-linejoin:miter;stroke-opacity:1"
       d="m 33.998555,-1856.5268 c 20.46347,8.1854 -0.82493,-0.6544 22.22336,10.1015 6.01032,2.8048 12.32096,4.9779 18.18274,8.0812 11.22972,5.9452 20.95998,14.5206 32.324875,20.2031 6.4874,3.2437 13.51834,5.2666 20.20307,8.0812 49.4298,21.9688 -12.58441,-4.8939 36.36549,14.1421 6.18158,2.404 12.06994,5.5074 18.18274,8.0813 6.68473,2.8146 13.58878,5.1048 20.20305,8.0812 6.86607,3.0897 13.16708,7.4211 20.20305,10.1015 7.17532,2.7335 14.84045,3.9515 22.22336,6.0609 6.76035,1.9316 13.60568,3.6303 20.20305,6.0609 3.02815,1.1157 39.85967,17.9369 40.4061,18.1828 72.65155,32.6932 -34.95256,-15.2241 36.36549,14.1421 5.5697,2.2934 10.64408,5.667 16.16245,8.0813 10.14458,4.4382 26.04908,9.4069 36.36549,12.1218 6.00433,1.5801 12.22627,2.2887 18.18274,4.0406 11.04006,3.2471 21.40776,8.4828 32.32488,12.1218 6.67007,2.2234 13.60569,3.6303 20.20306,6.0609 42.13591,15.5238 -7.95695,0.7742 40.4061,16.1625 7.31689,2.3281 14.93904,3.6328 22.22335,6.0609 6.88091,2.2936 13.29137,5.882 20.20305,8.0812 7.93781,2.5257 16.30586,3.5353 24.24367,6.0609 6.91168,2.1992 13.24005,6.0504 20.20305,8.0813 9.25643,2.6997 18.90839,3.8107 28.28427,6.0609 7.46632,1.7919 14.79368,4.1227 22.22338,6.0609 14.3725,5.3137 29.7069,6.4166 44.4467,10.1015 18.9088,5.6727 18.6056,5.9227 36.3655,10.1015 6.0437,1.4221 12.2005,2.3789 18.1827,4.0406 6.1557,1.71 12.1219,4.0407 18.1828,6.061 4.0406,1.3468 8.1465,2.5116 12.1218,4.0406 4.7869,1.8411 9.2402,4.5526 14.1421,6.0609 3.9152,1.2047 8.1983,0.8432 12.1219,2.0203 2.8846,0.8654 5.224,3.0882 8.0812,4.0406 3.2576,1.0859 6.8125,1.0336 10.1015,2.0203 3.4736,1.0421 6.5679,3.2252 10.1015,4.0406 24.8273,5.7294 7.7374,-2.1731 26.264,6.0609 2.7521,1.2232 5.9516,1.9111 8.0812,4.0406 1.5059,1.5059 0.5145,4.5551 2.0203,6.061 0.9524,0.9523 2.6938,0 4.0406,0 5.3875,0 10.775,0 16.1625,0 10.7749,0 21.5499,0 32.3249,0 19.9,0 26.2616,-0.6152 46.467,2.0203 20.5729,2.6834 27.4051,5.885 48.48728,10.1015 8.0336,1.6067 16.2101,2.4339 24.2437,4.0406 4.2271,0.8454 45.5033,10.4537 50.5076,12.1218 6.2922,2.0974 12.0012,5.6773 18.1828,8.0812 5.9543,2.3156 12.0848,4.1554 18.1827,6.061 4.6795,1.4623 9.5901,2.2198 14.1421,4.0406 5.5926,2.237 10.6935,5.557 16.1625,8.0812 3.2928,1.5197 6.8578,2.4188 10.1015,4.0406 7.1733,3.5866 11.0095,10.5555 18.1828,14.1421 0.6023,0.3012 1.4179,-0.3011 2.0203,0 0.8518,0.426 1.1168,1.7192 2.0203,2.0203 1.2777,0.426 2.7628,-0.4259 4.0406,0 0.9035,0.3012 1.2279,1.4921 2.0203,2.0204 1.2529,0.8352 2.9758,0.9555 4.0406,2.0203 4.9069,4.9069 -0.6008,2.9666 4.0406,6.0609 3.7298,2.4865 8.392,3.5744 12.1218,6.0609 6.7005,6.7005 -1.9047,-0.9524 4.0406,2.0203 0.8519,0.4259 1.1168,1.7191 2.0203,2.0203 1.2778,0.4259 2.6938,0 4.0407,0 4.714,0 9.428,0 14.1421,0 12.1218,0 24.2437,0 36.3655,0 1.3469,0 2.8359,-0.6023 4.0406,0 0.6023,0.3012 -0.4762,1.5441 0,2.0203 0.4762,0.4762 1.418,-0.3012 2.0203,0 4.993,2.4965 -0.6974,2.0203 4.0406,2.0203"
       id="path3690"
       inkscape:connector-curvature="0" />
    <path
       style="fill:none;fill-rule:evenodd;stroke:#000000;stroke-width:1px;stroke-linecap:butt;stroke-linejoin:miter;stroke-opacity:1"
       d="m 688.57742,-717.07485 c 11.6261,-27.2937 26.0358,-55.3597 44.4467,-78.7918 3.8359,-4.882 8.5413,-9.0697 12.1218,-14.1421 4.529,-6.4161 7.5026,-13.8516 12.1219,-20.2031 6.1872,-8.5074 14.2153,-15.5948 20.203,-24.2436 6.181,-8.9281 10.4073,-19.076 16.1625,-28.2844 4.3567,-6.97081 9.8153,-13.21361 14.1421,-20.20291 1.22,-1.9709 16.6228,-30.9952 20.203,-36.3655 5.0809,-7.6214 10.9317,-14.7041 16.1625,-22.22345 6.231,-8.9571 22.8577,-35.014 30.3046,-44.44669 16.978,-21.5055 12.5288,-13.1168 28.2842,-30.3046 3.5541,-3.8772 6.0864,-8.7243 10.1016,-12.1218 4.8499,-4.1038 10.9271,-6.5023 16.1624,-10.1015 16.8164,-11.5613 24.4104,-19.1914 40.4061,-34.3453 4.8397,-4.5849 9.9775,-8.9363 14.1421,-14.1421 3.9688,-4.961 6.4853,-10.9389 10.1016,-16.1624 2.4544,-3.5454 5.4939,-6.6519 8.08118,-10.1016 3.4758,-4.6344 6.0052,-10.0458 10.1015,-14.1421 2.7767,-2.7766 6.7344,-4.0406 10.1016,-6.0609 3.3671,-2.0203 6.7343,-4.0406 10.1015,-6.0609 3.3672,-1.3469 6.9313,-2.2794 10.1015,-4.0406 2.9435,-1.6353 5.0695,-4.5551 8.0812,-6.061 0.1254,-0.063 15.792,-3.9171 16.1625,-4.0406 11.4464,-5.7232 -3.0117,0.753 8.0812,-2.0203 1.4609,-0.3652 2.5797,-1.6551 4.0406,-2.0203 1.3067,-0.3266 2.7121,0.2214 4.0406,0 28.8888,-4.8148 -6.8884,1.5432 12.1218,-6.0609 1.8758,-0.7503 4.0681,0.3321 6.061,0 2.1006,-0.3501 3.9603,-1.6702 6.0609,-2.0203 1.9928,-0.3321 4.0681,0.3321 6.0609,0 2.1006,-0.3501 3.9603,-1.6702 6.0609,-2.0203 1.9928,-0.3321 4.0406,0 6.0609,0 6.0609,0 12.1219,0 18.1828,0 10.1015,0 20.203,0 30.3045,0 4.7141,0 9.4281,0 14.1422,0 2.0203,0 4.1009,0.49 6.0609,0 0.9239,-0.231 1.0964,-1.7893 2.0203,-2.0203 1.96,-0.49 4.1851,0.7503 6.0609,0 1.7685,-0.7074 2.6938,-2.6937 4.0406,-4.0406 9.7561,-9.7561 -2.1131,2.6414 8.0812,-10.1015 1.1899,-1.4874 2.6938,-2.6938 4.0407,-4.0407 4.0406,-4.0406 8.0812,-8.0812 12.1218,-12.1217 2.0203,-2.0203 4.2761,-3.8298 6.0609,-6.0609 1.6405,-2.0506 1.4651,-4.7732 4.0406,-6.0609 0.6023,-0.3012 1.418,0.3012 2.0203,0 0.8519,-0.4259 1.3469,-1.3469 2.0203,-2.0203 0.6735,-0.6735 1.5944,-1.1685 2.0203,-2.0203 0.3012,-0.6024 -0.4762,-1.5441 0,-2.0203 0.4762,-0.4762 1.5441,0.4762 2.0203,0 0.4762,-0.4762 -0.4762,-1.5441 0,-2.0203 1.0648,-1.0648 2.6938,-1.3469 4.0406,-2.0203 1.3469,-0.6735 2.5798,-1.6551 4.0407,-2.0203 1.3066,-0.3267 2.9199,0.7471 4.0406,0 1.2529,-0.8353 0.7673,-3.2054 2.0203,-4.0407 6.0609,-4.0406 2.0203,2.0203 6.0609,0 0.8518,-0.4259 1.1685,-1.5943 2.0203,-2.0203 0.6023,-0.3011 1.5441,0.4762 2.0203,0 0.4762,-0.4761 -0.4762,-1.5441 0,-2.0203 0.9524,-0.9523 2.8359,0.6024 4.0406,0 0.8518,-0.4259 1.3469,-1.3468 2.0203,-2.0203"
       id="path3692"
       inkscape:connector-curvature="0" />
    <path
       style="fill:none;fill-rule:evenodd;stroke:#000000;stroke-width:1px;stroke-linecap:butt;stroke-linejoin:miter;stroke-opacity:1"
       d="m 696.65862,-1244.3743 c 23.1179,11.5589 1.7797,-0.1685 22.2234,14.1421 3.2169,2.2518 7.0352,3.6079 10.1015,6.0609 3.7184,2.9747 6.578,6.8983 10.1015,10.1014 3.8919,3.5381 8.257,6.534 12.1219,10.1016 4.8986,4.5218 8.9363,9.9775 14.1421,14.1421 4.961,3.9688 10.8763,6.5774 16.1624,10.1015 6.8398,4.5598 13.1888,9.8557 20.2031,14.1422 5.1396,3.1408 11.2794,4.5545 16.1624,8.0812 11.8212,8.5375 23.6104,22.155 34.3452,32.3249 7.9584,7.5395 16.3137,14.6538 24.2437,22.2233 14.4671,13.8095 28.2842,28.2843 42.4264,42.4265 12.1218,12.1218 24.5287,23.9651 36.3655,36.3655 8.8836,9.3066 17.1663,19.1866 26.2639,28.28419 6.4065,6.4065 13.972,11.6055 20.20308,18.1828 26.3799,27.84555 6.1941,14.2752 36.3655,44.44675 6.0982,6.0982 13.7573,10.4328 20.2031,16.1624 5.6945,5.0618 10.7749,10.775 16.1624,16.1625 7.4078,7.4078 14.8156,14.81551 22.2233,22.22331 50.0645,50.0644 -10.1518,-10.79251 40.4062,42.4264 12.463,13.1191 25.5905,25.5906 38.3857,38.3858 3.3672,3.3672 7.178,6.3427 10.1016,10.1016 1.464,1.8823 2.8605,8.1812 6.0609,10.1015 2.5825,1.5495 5.4663,2.5464 8.0812,4.0406 2.1082,1.2047 4.0406,2.6937 6.0609,4.0406 2.6853,1.7902 9.4365,6.291 12.1219,8.0812 4.0406,2.6938 7.9576,5.5827 12.1218,8.0812 1.2912,0.7748 2.7877,1.1851 4.0406,2.0203 0.6734,0.6735 1.3469,1.3469 2.0203,2.0203 0,0.6735 -0.4762,1.5442 0,2.0204 0.4762,0.4761 1.5441,-0.4762 2.0203,0 0.4762,0.4761 -0.4762,1.5441 0,2.0203 0.4762,0.4761 1.418,-0.3012 2.0203,0 0.8518,0.4259 1.2279,1.492 2.0203,2.0203 1.253,0.8353 2.9758,0.9555 4.0406,2.0203 1.0648,1.0648 0.9555,2.9758 2.0203,4.0406 0.4762,0.4762 1.418,-0.3012 2.0203,0 1.7037,0.8518 2.4558,2.984 4.0406,4.0406 1.253,0.8353 2.9759,0.9555 4.0407,2.0203 0.4761,0.4762 -0.4762,1.5441 0,2.0203 0.9523,0.9524 2.8359,-0.6023 4.0406,0 6.161,3.0805 -3.6951,1.6016 6.0609,4.0406 1.3066,0.3267 2.7628,-0.4259 4.0406,0 0.9035,0.3012 1.1685,1.5944 2.0203,2.0203 0.6023,0.3012 1.418,-0.3012 2.0203,0 0.8518,0.4259 1.2279,1.492 2.0203,2.0203 7.3387,4.8925 1.4287,-0.5916 6.0609,4.0406"
       id="path3694"
       inkscape:connector-curvature="0" />
    <path
       style="fill:none;fill-rule:evenodd;stroke:#000000;stroke-width:1px;stroke-linecap:butt;stroke-linejoin:miter;stroke-opacity:1"
       d="m 72.384355,-149.36896 c 6.73112,-5.6509 10.48338,-13.7127 16.16244,-20.2032 2.50859,-2.8669 5.57263,-5.2143 8.08122,-8.0812 2.2173,-2.534 3.785625,-5.5991 6.060915,-8.0812 7.89552,-8.6133 20.69197,-20.9335 30.30458,-28.2843 6.52988,-4.9934 13.81385,-8.9699 20.20305,-14.1421 7.78126,-6.2991 14.7625,-13.5275 22.22336,-20.2031 5.33497,-4.7734 10.84141,-9.3532 16.16244,-14.1421 1.08006,-0.9721 37.60614,-34.7131 42.42641,-38.3858 7.72556,-5.8862 16.38887,-10.4499 24.24366,-16.1625 6.97468,-5.0724 13.4687,-10.7749 20.20305,-16.1623 8.75465,-6.0609 17.55601,-12.0549 26.26396,-18.1828 8.37957,-5.8968 46.64405,-32.8972 54.54824,-40.4062 5.56679,-5.2883 9.22658,-12.284 14.14214,-18.1826 53.98713,-64.7846 -5.06246,9.9159 22.22335,-28.2844 1.10712,-1.5499 2.98404,-2.4557 4.04061,-4.0405 0.37356,-0.5604 -0.21296,-1.3815 0,-2.0204 1.81952,-5.4584 3.48773,-11.016 6.06092,-16.1623 2.84122,-5.6825 6.77184,-10.7518 10.10152,-16.1625 7.37273,-11.9807 4.0655,-7.8246 12.12183,-18.1828 2.64737,-3.4038 5.19659,-6.8964 8.08122,-10.1014 12.98229,-14.4249 8.97066,-6.5734 22.22336,-24.2437 4.37059,-5.8274 7.38126,-12.6522 12.12183,-18.1828 3.42297,-3.9935 8.40266,-6.3824 12.12183,-10.1016 16.3124,-16.3123 3.6503,-7.487 18.18275,-20.2029 2.53405,-2.2173 5.49448,-3.9053 8.08122,-6.0609 1.46328,-1.2194 2.69374,-2.6938 4.04061,-4.0406 3.36717,-2.6938 6.65185,-5.494 10.10152,-8.0814 20.0343,-15.0256 -3.99973,3.3401 10.10153,-6.0608 0.79243,-0.5283 1.22787,-1.492 2.0203,-2.0203 15.52474,-10.3498 -9.39559,8.5031 8.08122,-6.0609 2.58674,-2.1556 5.70027,-3.68 8.08122,-6.0609 4.24264,-4.2427 7.98021,-12.0208 10.10153,-14.1422 1.06479,-1.0647 2.78767,-1.185 4.04061,-2.0203 0.79243,-0.5282 1.22788,-1.492 2.0203,-2.0203 1.25294,-0.8353 2.69375,-1.3468 4.04062,-2.0203 1.34687,-0.6734 2.61203,-1.5441 4.04061,-2.0203 0.63887,-0.2129 1.54411,0.4762 2.0203,0 1.71693,-1.7169 2.32368,-4.344 4.04061,-6.06089 0.47619,-0.4762 1.38143,0.213 2.02031,0 1.42857,-0.4762 2.78767,-1.185 4.04061,-2.0203 0.79242,-0.5283 1.22787,-1.492 2.0203,-2.0203 1.25294,-0.8353 2.78767,-1.185 4.04061,-2.0203 2.37729,-1.5849 3.68363,-4.4761 6.06092,-6.0609 0.56033,-0.3736 1.41796,0.3012 2.0203,0 0.85184,-0.4259 1.16847,-1.5944 2.02031,-2.0203 0.60234,-0.3012 1.41796,0.3011 2.0203,0 6.16105,-3.0805 -3.69502,-1.6016 6.06092,-4.0406 1.30665,-0.3267 2.76285,0.4259 4.04061,0 1.80701,-0.6024 2.45575,-2.9841 4.04061,-4.0406 1.25294,-0.8353 2.78767,-1.1851 4.04061,-2.0203 0.79243,-0.5283 1.11679,-1.7192 2.0203,-2.0204 1.81828,-0.606 4.24264,0.6061 6.06092,0 1.42857,-0.4761 2.61205,-1.5441 4.04065,-2.0203 1.2777,-0.4259 2.8359,0.6024 4.0406,0 0.8518,-0.4259 1.2278,-1.492 2.0203,-2.0203 10.2062,-6.8041 0.047,-0.016 6.0609,-2.0203 14.6339,-4.8779 -3.1852,0.5825 6.0609,-4.0406 0.6023,-0.3011 1.3469,0 2.0203,0 0.6734,0 1.3469,0 2.0203,0"
       id="path3696"
       inkscape:connector-curvature="0" />
    <path
       style="fill:none;fill-rule:evenodd;stroke:#000000;stroke-width:1px;stroke-linecap:butt;stroke-linejoin:miter;stroke-opacity:1"
       d="m 84.506185,-672.62815 c 2.69374,0 5.43093,-0.4818 8.08122,0 10.780765,1.9602 21.002325,6.4373 30.304585,12.122 7.01425,4.2865 13.18879,9.8556 20.20305,14.1421 5.13964,3.1409 10.83223,5.27589 16.16244,8.08119 7.46704,3.9301 14.75631,8.1918 22.22335,12.1219 5.33021,2.8053 10.71237,5.5164 16.16244,8.0812 6.00127,2.8241 12.40197,4.8295 18.18275,8.0812 5.04913,2.8401 9.17459,7.121 14.14213,10.1015 5.16502,3.099 10.77497,5.3875 16.16245,8.0812 6.06091,4.0407 11.96717,8.3235 18.18274,12.1219 5.91618,3.6154 12.51835,6.1031 18.18275,10.1015 5.84844,4.1283 10.39927,9.8956 16.16244,14.1421 55.20793,35.1324 -4.06304,-4.0574 36.36549,26.264 5.82745,4.3706 12.73838,7.2824 18.18275,12.1218 18.37947,16.3373 14.01524,20.1185 32.32488,32.3249 7.02093,4.6806 15.14847,7.5232 22.22335,12.1218 6.43786,4.1847 11.95808,9.6466 18.18275,14.1422 5.90524,4.2649 12.30864,7.8141 18.18274,12.1218 4.24145,3.1104 7.79735,7.1077 12.12183,10.1015 4.46402,3.0905 9.79862,4.8236 14.14214,8.0813 3.80952,2.8571 6.578,6.8983 10.10153,10.1015 3.89186,3.538 7.95287,6.8946 12.12183,10.1015 4.59175,3.5321 9.37908,6.804 14.14213,10.1015 3.99274,2.7642 8.36333,5.0061 12.12183,8.0813 36.15553,29.5817 -13.70502,-8.496 18.18275,20.203 3.60959,3.2486 8.28857,5.0998 12.12183,8.0812 2.25529,1.7541 3.866,4.2318 6.06091,6.0609 16.87641,14.0637 -5.58521,-7.6055 12.12183,10.1016 0.67344,0.6734 1.59439,1.1684 2.02031,2.0203 0.30117,0.6023 0,1.3468 0,2.0203 0,0.6734 0,1.3468 0,2.0203 0,2.6936 0,5.3875 0,8.0812 0,4.714 0,9.4281 0,14.1421 0,5.3875 -0.31636,10.7843 0,16.1625 0.3581,6.0877 1.34687,12.1218 2.02031,18.1827 0.67343,6.0608 0.89647,12.189 2.0203,18.1828 0.54701,2.9173 6.5418,22.8002 8.08122,26.2639 0.98615,2.2189 2.79136,3.9789 4.04061,6.061 1.5495,2.5825 2.37002,5.5753 4.04061,8.0812 0.65775,0.9865 7.0946,7.4233 8.08122,8.0812 1.25294,0.8353 2.83593,1.1168 4.04061,2.0202 1.52381,1.143 2.69374,2.6938 4.04061,4.0407 0.67344,0.6733 1.16847,1.5944 2.02031,2.0202 4.97591,2.4881 -1.8238,-5.8643 6.06091,2.0204 0.47619,0.4762 -0.30117,1.4179 0,2.0202 0.53951,1.079 4.9973,4.9973 6.06092,6.0609 2.0203,2.0203 3.68363,4.4762 6.06091,6.061 0.56033,0.3735 1.41797,-0.3012 2.02031,0 1.70367,0.8518 2.45575,2.984 4.04061,4.0406 1.25294,0.8353 2.78765,1.185 4.04065,2.0203 0.7924,0.5283 1.2278,1.492 2.0203,2.0203 1.2529,0.8353 2.7876,1.185 4.0406,2.0203 0.7924,0.5283 1.2279,1.492 2.0203,2.0203 1.2529,0.8353 2.7877,1.185 4.0406,2.0203 0.7924,0.5283 1.3469,1.3469 2.0203,2.0203 2.0203,2.0203 4.0406,4.0406 6.0609,6.0609 0.6734,0.6734 1.1685,1.5944 2.0203,2.0203 0.6024,0.3012 1.5441,-0.4762 2.0203,0 1.0648,1.0648 1.185,2.7877 2.0203,4.0406 1.1622,1.7433 4.4829,4.4829 6.0609,6.0609"
       id="path3698"
       inkscape:connector-curvature="0" />
    <path
       style="fill:none;fill-rule:evenodd;stroke:#000000;stroke-width:1px;stroke-linecap:butt;stroke-linejoin:miter;stroke-opacity:1"
       d="m 339.06463,495.10836 c 13.88553,-13.6409 23.06978,-30.8549 34.34519,-46.467 4.49559,-6.2248 9.19624,-12.3095 14.14213,-18.1828 5.83596,-6.9302 12.79748,-12.9172 18.18275,-20.203 6.11006,-8.2666 10.13339,-17.9383 16.16244,-26.2641 8.14264,-11.2446 17.67203,-21.4197 26.26396,-32.3249 8.91928,-11.3206 17.2961,-23.063 26.26397,-34.3452 11.91138,-14.9853 24.2813,-29.6004 36.36549,-44.4467 11.48612,-14.1115 22.89679,-28.28419 34.34519,-42.42639 24.00176,-29.64913 39.04706,-49.46203 64.64976,-76.77163 22.62097,-24.12901 33.76911,-34.00771 58.58881,-54.548207 9.9661,-8.2478 20.5288,-15.7713 30.3046,-24.2437 33.5469,-29.074 29.6776,-27.6316 58.5889,-62.6294 5.1726,-6.2615003 19.584,-23.6247 24.2436,-28.2842 1.717,-1.7169 4.1649,-2.5238 6.0609,-4.0406 1.4874,-1.1899 2.4558,-2.9841 4.0407,-4.0406 0.5603,-0.3736 1.3468,0 2.0203,0 0.6734,0 1.3468,0 2.0203,0 1.3468,0 2.7199,-0.2642 4.0406,0 1.852,0.3704 8.1424,2.5713 10.1015,4.0406 4.0538,3.0403 5.1055,6.4159 10.1015,8.0812 1.309,0.4363 8.4475,0 10.1016,0 5.3874,0 10.7749,0 16.1624,0 6.7343,0 13.4687,0 20.203,0 2.6938,0 5.4083,0.3341 8.0813,0 24.0597,-3.0075 -2.2756,-0.4413 12.1218,-4.0406 2.6133,-0.6533 5.5257,0.8518 8.0812,0 0.9035,-0.3012 1.1168,-1.7191 2.0203,-2.0203 1.2778,-0.4259 2.6938,0 4.0406,0 1.3469,0 2.6938,0 4.0406,0 4.0407,0 8.0813,0 12.1219,0 6.0609,0 12.1218,0 18.1827,0 2.6938,0 5.3875,0 8.0812,0 0.6735,0 2.0203,-0.6734 2.0203,0 0,0.6734 -2.6937,0 -2.0203,0 1.1288,0 8.9093,-0.3974 10.1016,0 2.8571,0.9524 5.1594,3.3102 8.0812,4.0406 1.3066,0.3267 2.7339,-0.3267 4.0406,0 9.7559,2.439 -0.1001,0.96 6.0609,4.0404997 5.9454,2.9727 -2.6599,-4.6800997 4.0406,2.0204"
       id="path3700"
       inkscape:connector-curvature="0" />
    <path
       style="fill:none;fill-rule:evenodd;stroke:#000000;stroke-width:1px;stroke-linecap:butt;stroke-linejoin:miter;stroke-opacity:1"
       d="m 343.10524,-1.8867673 c 22.88449,6.8654 18.80353,3.496 38.3858,18.1828003 7.65704,5.7428 14.71901,12.2417 22.22335,18.1826 8.65991,6.8558 17.54545,13.422 26.26397,20.2032 9.46447,7.3611 18.46154,15.3474 28.28427,22.2233 10.40944,7.2866 21.60503,13.3814 32.32488,20.2031 11.50419,7.320797 22.68369,15.155797 34.34519,22.223297 10.57249,6.4076 21.63382,11.9751 32.32488,18.1828 21.25333,12.34061 33.92229,19.46071 52.52793,34.34521 9.69646,7.7571 18.8049,16.2226 28.28431,24.2436 20.5623,17.39893 25.59,20.57673 44.4467,38.38583 5.5391,5.2314 10.4494,11.1215 16.1624,16.1625 5.7575,5.0801 12.3803,9.11329 18.1828,14.14209 4.3182,3.7425 7.9095,8.2606 12.1218,12.1218 5.948,5.4524 19.5435,16.2499 26.264,20.2031 6.2953,3.7031 30.8,15.2929 38.3858,18.1827 7.9603,3.0325 16.5527,4.4189 24.2436,8.0813 6.5767,3.1317 11.9042,8.4285 18.1828,12.1218 6.8692,4.0407 19.3455,8.7611 26.2639,14.1421 4.7141,3.6664 9.4281,10.2138 14.1422,14.1421 1.8653,1.5544 4.5441,2.1445 6.0609,4.0406 3.5988,4.4985 1.2913,5.7275 2.0203,10.1015 0.8218,4.9309 1.6266,8.0984 4.0406,12.1218 2.4985,4.1643 5.3875,8.0812 8.0812,12.1218 2.6938,4.0407 5.0476,8.3298 8.0812,12.1219 10.7404,13.4255 5.5496,2.4144 14.1422,16.1625 2.6409,4.2255 4.3739,10.4349 8.0812,14.1421 0.054,0.054 11.9091,7.9216 12.1218,8.0812 0.7619,0.5714 1.3469,1.3468 2.0203,2.0204 0.6735,0.6734 1.4921,1.2278 2.0203,2.0203 0.8353,1.2529 0.9555,2.9758 2.0203,4.0405 0.4762,0.4763 1.418,-0.3011 2.0203,0 0.8519,0.426 1.1685,1.5944 2.0204,2.0204 0.6023,0.3011 1.3468,0 2.0203,0 0.6734,0.6734 1.1684,1.5944 2.0203,2.0203 0.6023,0.3012 1.5441,-0.4762 2.0203,0 0.4762,0.4762 -0.6024,1.7191 0,2.0203 1.2046,0.6024 2.7628,-0.4259 4.0406,0 1.807,0.6024 2.4557,2.9841 4.0406,4.0406 10.2062,6.804 0.047,0.016 6.0609,2.0203 14.6339,4.878 -3.1852,-0.5824 6.0609,4.0406 0.6024,0.3011 1.418,-0.3012 2.0203,0 0.8519,0.426 1.1685,1.5944 2.0203,2.0203 5.9454,2.9727 -2.6599,-4.6802 4.0406,2.0203"
       id="path3702"
       inkscape:connector-curvature="0" />
    <text
       xml:space="preserve"
       style="font-style:normal;font-weight:normal;font-size:40px;line-height:125%;font-family:sans-serif;letter-spacing:0px;word-spacing:0px;fill:#000000;fill-opacity:1;stroke:none;stroke-width:1px;stroke-linecap:butt;stroke-linejoin:miter;stroke-opacity:1"
       x="460.28293"
       y="-2006.0294"
       id="text3704"
       sodipodi:linespacing="125%"><tspan
         sodipodi:role="line"
         id="tspan3706"
         x="460.28293"
         y="-2006.0294">Title</tspan></text>
    <text
       xml:space="preserve"
       style="font-style:normal;font-weight:normal;font-size:40px;line-height:125%;font-family:sans-serif;letter-spacing:0px;word-spacing:0px;fill:#000000;fill-opacity:1;stroke:none;stroke-width:1px;stroke-linecap:butt;stroke-linejoin:miter;stroke-opacity:1"
       x="520.89209"
       y="-1921.1766"
       id="text3708"
       sodipodi:linespacing="125%"><tspan
         sodipodi:role="line"
         id="tspan3710"
         x="520.89209"
         y="-1921.1766">Header </tspan></text>
    <text
       xml:space="preserve"
       style="font-style:normal;font-weight:normal;font-size:40px;line-height:125%;font-family:sans-serif;letter-spacing:0px;word-spacing:0px;fill:#000000;fill-opacity:1;stroke:none;stroke-width:1px;stroke-linecap:butt;stroke-linejoin:miter;stroke-opacity:1"
       x="539.07483"
       y="-1399.938"
       id="text3712"
       sodipodi:linespacing="125%"><tspan
         sodipodi:role="line"
         id="tspan3714"
         x="539.07483"
         y="-1399.938" /></text>
    <text
       xml:space="preserve"
       style="font-style:normal;font-weight:normal;font-size:40px;line-height:125%;font-family:sans-serif;letter-spacing:0px;word-spacing:0px;fill:#000000;fill-opacity:1;stroke:none;stroke-width:1px;stroke-linecap:butt;stroke-linejoin:miter;stroke-opacity:1"
       x="296.63821"
       y="-1104.9735"
       id="text3716"
       sodipodi:linespacing="125%"><tspan
         sodipodi:role="line"
         id="tspan3718"
         x="296.63821"
         y="-1104.9735">Article 1</tspan></text>
    <text
       xml:space="preserve"
       style="font-style:normal;font-weight:normal;font-size:40px;line-height:125%;font-family:sans-serif;letter-spacing:0px;word-spacing:0px;fill:#000000;fill-opacity:1;stroke:none;stroke-width:1px;stroke-linecap:butt;stroke-linejoin:miter;stroke-opacity:1"
       x="904.75006"
       y="-967.59259"
       id="text3720"
       sodipodi:linespacing="125%"><tspan
         sodipodi:role="line"
         id="tspan3722"
         x="904.75006"
         y="-967.59259">picture</tspan></text>
    <text
       xml:space="preserve"
       style="font-style:normal;font-weight:normal;font-size:40px;line-height:125%;font-family:sans-serif;letter-spacing:0px;word-spacing:0px;fill:#000000;fill-opacity:1;stroke:none;stroke-width:1px;stroke-linecap:butt;stroke-linejoin:miter;stroke-opacity:1"
       x="512.81085"
       y="-1620.1512"
       id="text3724"
       sodipodi:linespacing="125%"><tspan
         sodipodi:role="line"
         id="tspan3726"
         x="512.81085"
         y="-1620.1512">picture</tspan></text>
    <text
       xml:space="preserve"
       style="font-style:normal;font-weight:normal;font-size:40px;line-height:125%;font-family:sans-serif;letter-spacing:0px;word-spacing:0px;fill:#000000;fill-opacity:1;stroke:none;stroke-width:1px;stroke-linecap:butt;stroke-linejoin:miter;stroke-opacity:1"
       x="300.67886"
       y="-432.21182"
       id="text3728"
       sodipodi:linespacing="125%"><tspan
         sodipodi:role="line"
         id="tspan3730"
         x="300.67886"
         y="-432.21182">picture</tspan></text>
    <text
       xml:space="preserve"
       style="font-style:normal;font-weight:normal;font-size:40px;line-height:125%;font-family:sans-serif;letter-spacing:0px;word-spacing:0px;fill:#000000;fill-opacity:1;stroke:none;stroke-width:1px;stroke-linecap:butt;stroke-linejoin:miter;stroke-opacity:1"
       x="898.68915"
       y="-555.45044"
       id="text3732"
       sodipodi:linespacing="125%"><tspan
         sodipodi:role="line"
         id="tspan3734"
         x="898.68915"
         y="-555.45044">header</tspan></text>
    <text
       xml:space="preserve"
       style="font-style:normal;font-weight:normal;font-size:40px;line-height:125%;font-family:sans-serif;letter-spacing:0px;word-spacing:0px;fill:#000000;fill-opacity:1;stroke:none;stroke-width:1px;stroke-linecap:butt;stroke-linejoin:miter;stroke-opacity:1"
       x="512.81085"
       y="-72.59742"
       id="text3736"
       sodipodi:linespacing="125%"><tspan
         sodipodi:role="line"
         id="tspan3738"
         x="512.81085"
         y="-72.59742">header:</tspan></text>
    <text
       xml:space="preserve"
       style="font-style:normal;font-weight:normal;font-size:40px;line-height:125%;font-family:sans-serif;letter-spacing:0px;word-spacing:0px;fill:#000000;fill-opacity:1;stroke:none;stroke-width:1px;stroke-linecap:butt;stroke-linejoin:miter;stroke-opacity:1"
       x="389.5723"
       y="571.87994"
       id="text3740"
       sodipodi:linespacing="125%"><tspan
         sodipodi:role="line"
         id="tspan3742"
         x="389.5723"
         y="571.87994">footer</tspan></text>
    <text
       xml:space="preserve"
       style="font-style:normal;font-weight:normal;font-size:40px;line-height:125%;font-family:sans-serif;letter-spacing:0px;word-spacing:0px;fill:#000000;fill-opacity:1;stroke:none;stroke-width:1px;stroke-linecap:butt;stroke-linejoin:miter;stroke-opacity:1"
       x="690.59772"
       y="-1931.2781"
       id="text3744"
       sodipodi:linespacing="125%"><tspan
         sodipodi:role="line"
         id="tspan3746"
         x="690.59772"
         y="-1931.2781">#1</tspan></text>
    <text
       xml:space="preserve"
       style="font-style:normal;font-weight:normal;font-size:40px;line-height:125%;font-family:sans-serif;letter-spacing:0px;word-spacing:0px;fill:#000000;fill-opacity:1;stroke:none;stroke-width:1px;stroke-linecap:butt;stroke-linejoin:miter;stroke-opacity:1"
       x="466.34384"
       y="-1410.0394"
       id="text3748"
       sodipodi:linespacing="125%"><tspan
         sodipodi:role="line"
         id="tspan3750"
         x="466.34384"
         y="-1410.0394">footer</tspan></text>
    <text
       xml:space="preserve"
       style="font-style:normal;font-weight:normal;font-size:40px;line-height:125%;font-family:sans-serif;letter-spacing:0px;word-spacing:0px;fill:#000000;fill-opacity:1;stroke:none;stroke-width:1px;stroke-linecap:butt;stroke-linejoin:miter;stroke-opacity:1"
       x="522.91241"
       y="-1313.0648"
       id="text3752"
       sodipodi:linespacing="125%"><tspan
         sodipodi:role="line"
         id="tspan3754"
         x="522.91241"
         y="-1313.0648" /></text>
    <text
       xml:space="preserve"
       style="font-style:normal;font-weight:normal;font-size:40px;line-height:125%;font-family:sans-serif;letter-spacing:0px;word-spacing:0px;fill:#000000;fill-opacity:1;stroke:none;stroke-width:1px;stroke-linecap:butt;stroke-linejoin:miter;stroke-opacity:1"
       x="468.36417"
       y="739.56525"
       id="text3775"
       sodipodi:linespacing="125%"><tspan
         sodipodi:role="line"
         id="tspan3777"
         x="468.36417"
         y="739.56525">---</tspan></text>
    <text
       xml:space="preserve"
       style="font-style:normal;font-weight:normal;font-size:40px;line-height:125%;font-family:sans-serif;letter-spacing:0px;word-spacing:0px;fill:#000000;fill-opacity:1;stroke:none;stroke-width:1px;stroke-linecap:butt;stroke-linejoin:miter;stroke-opacity:1"
       x="118.85139"
       y="254.69185"
       id="text3779"
       sodipodi:linespacing="125%"><tspan
         sodipodi:role="line"
         id="tspan3781"
         x="118.85139"
         y="254.69185" /></text>
  </g>
</svg>
