<?xml version="1.0" encoding="UTF-8" standalone="no"?>
<!-- Created with Inkscape (http://www.inkscape.org/) -->

<svg
   xmlns:dc="http://purl.org/dc/elements/1.1/"
   xmlns:cc="http://creativecommons.org/ns#"
   xmlns:rdf="http://www.w3.org/1999/02/22-rdf-syntax-ns#"
   xmlns:svg="http://www.w3.org/2000/svg"
   xmlns="http://www.w3.org/2000/svg"
   xmlns:sodipodi="http://sodipodi.sourceforge.net/DTD/sodipodi-0.dtd"
   xmlns:inkscape="http://www.inkscape.org/namespaces/inkscape"
   id="svg3355"
   version="1.1"
   inkscape:version="0.91 r13725"
   xml:space="preserve"
   width="1280"
   height="800"
   viewBox="0 0 1280 800"
   sodipodi:docname="BaselinepotentialsPractisesketch.svg"
   inkscape:export-filename="baselinepotentials1st"
   inkscape:export-xdpi="90"
   inkscape:export-ydpi="90"><metadata
     id="metadata3361"><rdf:RDF><cc:Work
         rdf:about=""><dc:format>image/svg+xml</dc:format><dc:type
           rdf:resource="http://purl.org/dc/dcmitype/StillImage" /><dc:title /></cc:Work></rdf:RDF></metadata><defs
     id="defs3359" /><sodipodi:namedview
     pagecolor="#ffffff"
     bordercolor="#666666"
     borderopacity="1"
     objecttolerance="10"
     gridtolerance="10"
     guidetolerance="10"
     inkscape:pageopacity="0"
     inkscape:pageshadow="2"
     inkscape:window-width="1280"
     inkscape:window-height="707"
     id="namedview3357"
     showgrid="false"
     inkscape:zoom="0.62875"
     inkscape:cx="834.03579"
     inkscape:cy="272.76342"
     inkscape:window-x="0"
     inkscape:window-y="0"
     inkscape:window-maximized="0"
     inkscape:current-layer="g3365" /><g
     id="g3363"
     inkscape:groupmode="layer"
     inkscape:label="BaselinepotentialsPractisesketch"
     transform="matrix(1.25,0,0,-1.25,0,800)"><g
       id="g3365"
       transform="translate(-10.178926,1.2723658)"><path
         d="m 491.152,186.348 20.786,-36 20.781,-36 -83.137,0 41.57,72 z"
         style="fill:#000000;fill-opacity:1;fill-rule:nonzero;stroke:none"
         id="path3371"
         inkscape:connector-curvature="0" /><path
         d="m 228.848,228.688 592,0 0,-32 -592,0 0,32 z"
         style="fill:#000000;fill-opacity:1;fill-rule:nonzero;stroke:none"
         id="path3373"
         inkscape:connector-curvature="0" /><path
         d="m 400,296 c 0,-4.418 -21.492,-8 -48,-8 -26.508,0 -48,3.582 -48,8 0,4.418 21.492,8 48,8 26.508,0 48,-3.582 48,-8 z"
         style="fill:#000000;fill-opacity:1;fill-rule:nonzero;stroke:none"
         id="path3379"
         inkscape:connector-curvature="0" /><path
         d="m 352,264 c 0,-13.254 -3.582,-24 -8,-24 -4.418,0 -8,10.746 -8,24 0,13.254 3.582,24 8,24 4.418,0 8,-10.746 8,-24 z"
         style="fill:#000000;fill-opacity:1;fill-rule:nonzero;stroke:none"
         id="path3381"
         inkscape:connector-curvature="0" /><path
         d="m 688,279.836 c 0,-4.418 -25.07,-8 -56,-8 -30.93,0 -56,3.582 -56,8 0,4.418 25.07,8 56,8 30.93,0 56,-3.582 56,-8 z"
         style="fill:#000000;fill-opacity:1;fill-rule:nonzero;stroke:none"
         id="path3383"
         inkscape:connector-curvature="0" /><path
         d="m 638.383,249.453 c 0,-13.254 -3.582,-24 -8,-24 -4.418,0 -8,10.746 -8,24 0,13.254 3.582,24 8,24 4.418,0 8,-10.746 8,-24 z"
         style="fill:#000000;fill-opacity:1;fill-rule:nonzero;stroke:none"
         id="path3385"
         inkscape:connector-curvature="0" /><path
         d="m 745.699,320.81628 c 0,-15.71807 -14.328,-28.45328 -32,-28.45328 -17.676,0 -32,12.73521 -32,28.45328 0,15.71332 14.324,28.45328 32,28.45328 17.672,0 32,-12.73996 32,-28.45328 z"
         style="fill:#000000;fill-opacity:1;fill-rule:nonzero;stroke:none"
         id="path3387"
         inkscape:connector-curvature="0" /><path
         d="m 772.688,263.758 c 0,-17.676 -17.911,-40.90656 -40,-40.90656 -22.094,0 -40,23.23056 -40,40.90656 0,17.672 17.906,32 40,32 22.089,0 40,-14.328 40,-32 z"
         style="fill:#000000;fill-opacity:1;fill-rule:nonzero;stroke:none"
         id="path3389"
         inkscape:connector-curvature="0"
         sodipodi:nodetypes="sssss" /><path
         d="m 720,157.895 c 0,-26.508 -7.164,-48 -16,-48 -8.836,0 -16,21.492 -16,48 0,26.511 7.164,48 16,48 8.836,0 16,-21.489 16,-48 z"
         style="fill:#000000;fill-opacity:1;fill-rule:nonzero;stroke:none"
         id="path3391"
         inkscape:connector-curvature="0" /><path
         d="m 997.66634,496.95611 c 0,-46.64355 -90.92821,-84.45328 -203.08548,-84.45328 -112.16169,0 -203.08549,37.80973 -203.08549,84.45328 0,46.64249 90.9238,84.45328 203.08549,84.45328 112.15727,0 203.08548,-37.81079 203.08548,-84.45328 z"
         style="fill:#000000;fill-opacity:1;fill-rule:nonzero;stroke:none"
         id="path3393"
         inkscape:connector-curvature="0" /><path
         d="m 309.012,270.141 c 0,-22.094 -16.63763,-50.17893 -38.72763,-50.17893 -22.094,0 -41.27237,28.08493 -41.27237,50.17893 0,22.089 17.906,40 40,40 22.09,0 40,-17.911 40,-40 z"
         style="fill:#000000;fill-opacity:1;fill-rule:nonzero;stroke:none"
         id="path3395"
         inkscape:connector-curvature="0"
         sodipodi:nodetypes="sssss" /><path
         d="m 300.766,165.977 c 0,-26.508 -7.161,-48 -16,-48 -8.836,0 -16,21.492 -16,48 0,26.511 7.164,48 16,48 8.839,0 16,-21.489 16,-48 z"
         style="fill:#000000;fill-opacity:1;fill-rule:nonzero;stroke:none"
         id="path3397"
         inkscape:connector-curvature="0" /><path
         d="m 273.941,327.594 c 0,-17.672 -17.91,-32 -40,-32 -22.089,0 -40,14.328 -40,32 0,17.672 17.911,32 40,32 22.09,0 40,-14.328 40,-32 z"
         style="fill:#000000;fill-opacity:1;fill-rule:nonzero;stroke:none"
         id="path3399"
         inkscape:connector-curvature="0" /><path
         d="m 433.617,511.758 c 0,-39.766 -82.379,-72 -184,-72 -101.621,0 -184,32.234 -184,72 0,39.762 82.379,72 184,72 101.621,0 184,-32.238 184,-72 z"
         style="fill:#00ffff;fill-opacity:1;fill-rule:nonzero;stroke:none"
         id="path3405"
         inkscape:connector-curvature="0" /><path
         d="m 184.57,364.281 c 0,-8.836 -3.582,-16 -8,-16 -4.422,0 -8,7.164 -8,16 0,8.836 3.578,16 8,16 4.418,0 8,-7.164 8,-16 z"
         style="fill:#00ffff;fill-opacity:1;fill-rule:nonzero;stroke:none"
         id="path3407"
         inkscape:connector-curvature="0" /><path
         d="m 204.289,430.223 c 0,-8.84 -3.582,-16 -8,-16 -4.418,0 -8,7.16 -8,16 0,8.836 3.582,16 8,16 4.418,0 8,-7.164 8,-16 z"
         style="fill:#00ffff;fill-opacity:1;fill-rule:nonzero;stroke:none"
         id="path3409"
         inkscape:connector-curvature="0" /><path
         d="m 195.1382,440.09457 c -88.36309,12.00632 -142.234431,46.3037 -131.972787,84.02133 3.203912,11.7719 19.980853,28.76087 37.474617,37.94332 24.72994,12.9854 55.92246,22.09045 93.40519,27.26607 27.92575,3.85419 90.63726,2.90781 119.2119,-1.79353 57.86002,-9.52263 101.96856,-30.72884 115.08939,-55.33242 11.16097,-20.93255 3.27184,-40.54912 -23.51327,-58.46265 -21.26039,-14.22071 -53.62599,-25.43875 -91.97965,-31.88674 -24.35785,-4.09297 -92.97733,-5.11566 -117.71539,-1.75538 z"
         style="fill:#000000;fill-opacity:1;fill-rule:nonzero;stroke:none"
         id="path3411"
         inkscape:connector-curvature="0" /><path
         d="m 232.309,325.355 c -3.039,3.668 -3.809,18.497 -1.207,23.411 4.683,8.863 12.496,2.296 12.496,-10.508 0,-11.602 -6.348,-18.856 -11.289,-12.903 z"
         style="fill:#808080;fill-opacity:1;fill-rule:nonzero;stroke:none"
         id="path3413"
         inkscape:connector-curvature="0" /><path
         d="m 137.699,393.16 c -2.961,7.09 -2.961,12.406 0,19.496 4.442,10.629 12.203,4.426 12.203,-9.746 0,-14.176 -7.761,-20.379 -12.203,-9.75 z"
         style="fill:#00ffff;fill-opacity:1;fill-rule:nonzero;stroke:none"
         id="path3415"
         inkscape:connector-curvature="0" /><path
         d="m 741.855,344.707 c -10.273,4.465 -4.398,12.137 9.293,12.137 13.934,0 19.61,-7.746 8.942,-12.203 -6.93,-2.895 -11.457,-2.879 -18.235,0.066 z"
         style="fill:#ff00ff;fill-opacity:1;fill-rule:nonzero;stroke:none"
         id="path3417"
         inkscape:connector-curvature="0" /><text
         transform="matrix(1,0,0,-1,611.54922,502.30254)"
         style="font-variant:normal;font-weight:normal;font-size:32px;font-family:'Bitstream Vera Sans';-inkscape-font-specification:BitstreamVeraSans-Roman;writing-mode:lr-tb;fill:#00ff00;fill-opacity:1;fill-rule:nonzero;stroke:none"
         id="text3419"><tspan
           x="0 9.408 19.552 45.695999 65.375999 85.632004 105.888 125.632 135.776 154.88 172.8 192.48 205.632 222.272 231.136 247.90401 267.58401 277.728 308.79999 328.35199 340.86401"
           y="0"
           sodipodi:role="line"
           id="tspan3421">I wanna exersize more!</tspan></text>
<text
         transform="matrix(1,0,0,-1,402.74519,562.09539)"
         style="font-variant:normal;font-weight:normal;font-size:32px;font-family:'Bitstream Vera Sans';-inkscape-font-specification:BitstreamVeraSans-Roman;writing-mode:lr-tb;fill:#ff00ff;fill-opacity:1;fill-rule:nonzero;stroke:none"
         id="text3433"><tspan
           sodipodi:role="line"
           id="tspan3435"
           x="0"
           y="0" /></text>
<path
         d="m 946.754,427.719 c 0,-22.09 -21.492,-40 -48,-40 -26.512,0 -48,17.91 -48,40 0,22.093 21.488,40 48,40 26.508,0 48,-17.907 48,-40 z"
         style="fill:#ff00ff;fill-opacity:1;fill-rule:nonzero;stroke:none"
         id="path3437"
         inkscape:connector-curvature="0" /><path
         d="m 834.422,373.977 c 0,-8.836 -10.746,-16 -24,-16 -13.258,0 -24,7.164 -24,16 0,8.835 10.742,16 24,16 13.254,0 24,-7.165 24,-16 z"
         style="fill:#ff00ff;fill-opacity:1;fill-rule:nonzero;stroke:none"
         id="path3439"
         inkscape:connector-curvature="0" /><flowRoot
         xml:space="preserve"
         id="flowRoot3388"
         style="fill:black;stroke:none;stroke-opacity:1;stroke-width:1px;stroke-linejoin:miter;stroke-linecap:butt;fill-opacity:1;font-family:sans-serif;font-style:normal;font-weight:normal;font-size:40px;line-height:125%;letter-spacing:0px;word-spacing:0px"><flowRegion
           id="flowRegion3390"><rect
             id="rect3392"
             width="128.82704"
             height="117.69384"
             x="493.04175"
             y="98.608353" /></flowRegion><flowPara
           id="flowPara3394" /></flowRoot><text
         xml:space="preserve"
         style="font-style:normal;font-weight:normal;font-size:32px;line-height:125%;font-family:sans-serif;letter-spacing:0px;word-spacing:0px;fill:#000000;fill-opacity:1;stroke:none;stroke-width:1px;stroke-linecap:butt;stroke-linejoin:miter;stroke-opacity:1"
         x="410.97415"
         y="-591.65009"
         id="text3396"
         sodipodi:linespacing="125%"
         transform="scale(1,-1)"><tspan
           sodipodi:role="line"
           id="tspan3398"
           x="410.97415"
           y="-591.65009" /></text>
<rect
         style="fill:#000000"
         id="rect3389"
         width="1026.7992"
         height="55.984104"
         x="10.178926"
         y="-52.166992"
         transform="scale(1,-1)" /><rect
         style="fill:#000000"
         id="rect3394"
         width="1019.165"
         height="41.988071"
         x="13.996023"
         y="-636.18292"
         transform="scale(1,-1)" /><path
         style="fill:#000000"
         d="m 5.7256461,29.741551 0,-25.4473164 636.1829039,0 636.18295,0 0,25.4473164 0,25.447316 -636.18295,0 -636.1829039,0 0,-25.447316 z"
         id="path3396"
         inkscape:connector-curvature="0"
         transform="matrix(0.8,0,0,-0.8,10.178926,638.72763)" /><text
         xml:space="preserve"
         style="font-style:normal;font-weight:normal;font-size:32px;line-height:125%;font-family:sans-serif;letter-spacing:0px;word-spacing:0px;fill:#ffff00;fill-opacity:1;stroke:none;stroke-width:1px;stroke-linecap:butt;stroke-linejoin:miter;stroke-opacity:1"
         x="92.882706"
         y="-500.03976"
         id="text3408"
         sodipodi:linespacing="125%"
         transform="scale(1,-1)"><tspan
           sodipodi:role="line"
           id="tspan3410"
           x="92.882706"
           y="-500.03976">I wanna eat better!</tspan></text>
</g><rect
       style="fill:#f9f9f9"
       id="rect3462"
       width="22.902584"
       height="6.3618288"
       x="236.66003"
       y="-325.72565"
       transform="scale(1,-1)" /><rect
       style="fill:#000000"
       id="rect3464"
       width="25.447315"
       height="6.3618288"
       x="684.53284"
       y="-310.45724"
       transform="scale(1,-1)" /><path
       style="fill:#ffff00"
       d=""
       id="path3472"
       inkscape:connector-curvature="0"
       transform="matrix(0.8,0,0,-0.8,0,640)" /><path
       style="fill:#000000"
       d=""
       id="path3476"
       inkscape:connector-curvature="0"
       transform="matrix(0.8,0,0,-0.8,0,640)" /><ellipse
       style="fill:#f9f9f9"
       id="path3382"
       cx="229.66203"
       cy="-335.26837"
       transform="scale(1,-1)"
       rx="3.1809144"
       ry="4.4532804" /><ellipse
       style="fill:#b3b3b3"
       id="path3418"
       cx="690.89465"
       cy="-330.81516"
       transform="scale(1,-1)"
       rx="6.3618288"
       ry="10.178926" /><ellipse
       style="fill:#f2f2f2"
       id="path3429"
       cx="689.62225"
       cy="-328.27039"
       transform="scale(1,-1)"
       rx="3.8170974"
       ry="6.3618288" /><rect
       style="fill:#f2f2f2"
       id="rect3431"
       width="25.447315"
       height="5.0894632"
       x="673.08148"
       y="-313.00198"
       transform="scale(1,-1)" /></g></svg>